HIERARCHY
ROOT RootJoint
{
    OFFSET   0.000000   0.000000   0.000000
    CHANNELS 6 Xposition Yposition Zposition Xrotation Yrotation Zrotation
    JOINT pelvis_lowerback
    {
        OFFSET   0.000000   0.093605   0.000000
        CHANNELS 3 Xrotation Yrotation Zrotation
        JOINT lowerback_torso
        {
            OFFSET   0.000000   0.100000   0.000000
            CHANNELS 3 Xrotation Yrotation Zrotation
            JOINT torso_head
            {
                OFFSET   0.000000   0.282350   0.000000
                CHANNELS 3 Xrotation Yrotation Zrotation
                End Site
                {
                    OFFSET   0.000000   0.192650   0.000000
                }
            }
            JOINT rTorso_Clavicle
            {
                OFFSET  -0.001000   0.157500   0.000000
                CHANNELS 3 Xrotation Yrotation Zrotation
                JOINT rShoulder
                {
                    OFFSET  -0.117647   0.000000   0.000000
                    CHANNELS 3 Xrotation Yrotation Zrotation
                    JOINT rElbow
                    {
                        OFFSET  -0.245000   0.000000   0.000000
                        CHANNELS 3 Xrotation Yrotation Zrotation
                        JOINT rWrist
                        {
                            OFFSET  -0.240000   0.000000   0.000000
                            CHANNELS 3 Xrotation Yrotation Zrotation
                            End Site
                            {
                                OFFSET  -0.116353  -0.002500   0.000000
                            }
                        }
                    }
                }
            }
            JOINT lTorso_Clavicle
            {
                OFFSET   0.001000   0.157500   0.000000
                CHANNELS 3 Xrotation Yrotation Zrotation
                JOINT lShoulder
                {
                    OFFSET   0.117647   0.000000   0.000000
                    CHANNELS 3 Xrotation Yrotation Zrotation
                    JOINT lElbow
                    {
                        OFFSET   0.245000   0.000000   0.000000
                        CHANNELS 3 Xrotation Yrotation Zrotation
                        JOINT lWrist
                        {
                            OFFSET   0.240000   0.000000   0.000000
                            CHANNELS 3 Xrotation Yrotation Zrotation
                            End Site
                            {
                                OFFSET   0.116353  -0.002500   0.000000
                            }
                        }
                    }
                }
            }
        }
    }
    JOINT rHip
    {
        OFFSET  -0.100000  -0.051395   0.000000
        CHANNELS 3 Xrotation Yrotation Zrotation
        JOINT rKnee
        {
            OFFSET   0.000000  -0.410000   0.000000
            CHANNELS 3 Xrotation Yrotation Zrotation
            JOINT rAnkle
            {
                OFFSET   0.000000  -0.390000   0.000000
                CHANNELS 3 Xrotation Yrotation Zrotation
                JOINT rToeJoint
                {
                    OFFSET   0.000000  -0.050000   0.130000
                    CHANNELS 3 Xrotation Yrotation Zrotation
                    End Site
                    {
                        OFFSET  -0.010000   0.002000   0.060000
                    }
                }
            }
        }
    }
    JOINT lHip
    {
        OFFSET   0.100000  -0.051395   0.000000
        CHANNELS 3 Xrotation Yrotation Zrotation
        JOINT lKnee
        {
            OFFSET   0.000000  -0.410000   0.000000
            CHANNELS 3 Xrotation Yrotation Zrotation
            JOINT lAnkle
            {
                OFFSET   0.000000  -0.390000   0.000000
                CHANNELS 3 Xrotation Yrotation Zrotation
                JOINT lToeJoint
                {
                    OFFSET   0.000000  -0.050000   0.130000
                    CHANNELS 3 Xrotation Yrotation Zrotation
                    End Site
                    {
                        OFFSET   0.010000   0.002000   0.060000
                    }
                }
            }
        }
    }
}
MOTION
Frames: 15
Frame Time:   0.008333
 -2.375494   0.868102   4.436743  -4.461777  -5.041160   0.984799  15.162412   0.294084  -1.191197  -5.497042  -0.218404   1.058514  -2.591987  -0.197362   0.001563  -5.338470  -4.611594   4.626268 -29.388272  -6.457336  29.922083   0.102771  83.926505  -0.094637   0.853227   5.781527 -27.015118  -4.832001   3.927130  -2.092646 -32.964491   7.798531 -27.870821   0.252731 -78.572306   0.227293  -2.637421  -6.051566  30.280970 -13.315428  -1.456916  -5.287750  42.712365   0.001684  -0.001212 -24.549081  -5.585437   0.935853  -0.315942   0.000155  -0.000207 -12.138715  -0.603221   2.015373  41.653861   0.003974  -0.004201 -24.492927   5.215891   5.329256  -1.057810   0.000446  -0.000898
 -2.374693   0.864391   4.436072  -4.679851  -4.978522   0.959958  15.376593   0.255533  -1.231880  -5.373699  -0.242186   1.128601  -2.795791  -0.082336   0.003828  -5.090995  -4.071904   4.784526 -27.825466  -5.815184  30.765923  -0.109045  82.830276   0.107052   1.303658   6.196232 -26.997939  -4.652151   3.209555  -2.258469 -31.487721   7.273293 -28.719688   0.185505 -78.428314   0.166331  -2.409252  -6.319218  30.024891 -13.798445  -1.378341  -5.351929  44.130498   0.002323  -0.000613 -25.266606  -5.649891   0.911005  -0.294052   0.000140  -0.000166 -12.902080  -0.580069   1.967730  43.533578   0.004762  -0.002317 -24.949972   5.295628   5.409280  -1.709356   0.000717  -0.001530
 -2.373844   0.860716   4.435637  -4.917741  -4.936354   0.927182  15.574451   0.234807  -1.264337  -5.238231  -0.253879   1.195177  -3.011510   0.028825   0.001625  -4.795517  -3.540673   5.001660 -26.302928  -5.222062  31.580413  -0.232162  81.713508   0.221936   1.531865   6.180369 -26.658359  -4.433492   2.511171  -2.482900 -30.055606   6.777908 -29.552092   0.128387 -78.242628   0.114585  -2.318933  -6.347036  29.513371 -14.213373  -1.293455  -5.411984  45.481681   0.002814  -0.000328 -25.965913  -5.703184   0.889363  -0.271771   0.000128  -0.000133 -13.609631  -0.544516   1.917789  45.394190   0.005533  -0.001144 -25.315799   5.368193   5.487208  -2.538709   0.001012  -0.002021
 -2.372953   0.857070   4.435369  -5.154041  -4.903893   0.886037  15.762058   0.219421  -1.288426  -5.100546  -0.261253   1.262917  -3.221832   0.133110  -0.000542  -4.494095  -3.040377   5.258580 -24.859730  -4.666063  32.356807  -0.292103  80.650099   0.275939   1.668100   6.007270 -26.208829  -4.209556   1.855527  -2.742469 -28.700313   6.311982 -30.347203   0.084309 -78.055546   0.074788  -2.291116  -6.275057  28.929101 -14.590710  -1.209210  -5.466124  46.774854   0.003187  -0.000231 -26.646288  -5.748841   0.872035  -0.249620   0.000119  -0.000106 -14.262261  -0.509007   1.874448  47.166269   0.006064  -0.000478 -25.650702   5.444891   5.563877  -3.372595   0.001234  -0.002340
 -2.372017   0.853466   4.435222  -5.381797  -4.877261   0.838381  15.945110   0.206366  -1.305371  -4.961796  -0.266655   1.331718  -3.422000   0.230508  -0.001941  -4.199129  -2.574172   5.532402 -23.503522  -4.140443  33.087271  -0.314816  79.649384   0.294782   1.770000   5.784349 -25.732947  -3.990316   1.245049  -3.015210 -27.427722   5.870797 -31.095794   0.051194 -77.874538   0.044983  -2.288708  -6.163502  28.338608 -14.941936  -1.126800  -5.516002  48.011897   0.003465  -0.000249 -27.305034  -5.788846   0.858611  -0.227489   0.000113  -0.000085 -14.869941  -0.479861   1.836801  48.834756   0.006325  -0.000194 -25.970712   5.517298   5.636577  -4.157226   0.001341  -0.002434
 -2.371029   0.849924   4.435167  -5.599115  -4.855924   0.785703  16.126686   0.195100  -1.316475  -4.821339  -0.270579   1.400729  -3.610209   0.321412  -0.002567  -3.915792  -2.141193   5.808426 -22.234405  -3.641390  33.768674  -0.315904  78.711450   0.293689   1.857825   5.548369 -25.257988  -3.780012   0.678170  -3.287493 -26.237507   5.451127 -31.794550   0.026778 -77.702176   0.023068  -2.296639  -6.036434  27.762490 -15.270816  -1.045681  -5.563077  49.191878   0.003666  -0.000346 -27.939497  -5.823833   0.848116  -0.205096   0.000108  -0.000068 -15.440331  -0.458143   1.803040  50.400481   0.006356  -0.000180 -26.278505   5.583198   5.704668  -4.879901   0.001346  -0.002349
 -2.369985   0.846463   4.435191  -5.803720  -4.841490   0.728970  16.305799   0.186027  -1.322837  -4.679840  -0.272733   1.469164  -3.785877   0.406270  -0.002534  -3.646224  -1.739752   6.078239 -21.049426  -3.166834  34.401019  -0.304546  77.834027   0.281445   1.939410   5.313463 -24.793374  -3.580282   0.152918  -3.551728 -25.126646   5.051459 -32.443362   0.009118 -77.539383   0.007256  -2.308243  -5.904697  27.207600 -15.580320  -0.964401  -5.608089  50.313291   0.003796  -0.000498 -28.547668  -5.853405   0.839643  -0.182165   0.000105  -0.000055 -15.972747  -0.443316   1.771191  51.877744   0.006212  -0.000371 -26.571056   5.641327   5.768025  -5.571572   0.001289  -0.002126
 -2.368892   0.844820   4.435890  -5.938088  -4.755279   0.686592  16.153184   0.179840  -1.358880  -4.408322  -0.305659   1.573608  -3.950362   0.516904   0.030893  -3.407910  -1.400701   6.366890 -19.598200  -2.728323  35.067421  -0.361781  75.638993   0.329227   2.354448   5.844542 -24.349501  -3.333714  -0.343995  -3.794169 -23.601792   4.567672 -33.246379  -0.088633 -76.331401  -0.081403  -1.972727  -6.372199  26.711953 -15.586603  -0.904174  -5.673267  50.771681   0.003638  -0.000288 -28.799655  -5.953388   1.170794  -0.232134   0.000176  -0.000044 -16.471408  -0.484815   1.717900  53.078424   0.005891  -0.000414 -26.091601   5.712884   5.636867  -7.184982  -0.000388  -0.001916
 -2.367701   0.844076   4.436863  -6.000747  -4.698415   0.647912  15.914585   0.189326  -1.395128  -4.164500  -0.333803   1.671688  -4.133955   0.623248   0.064046  -3.111637  -1.137576   6.686084 -18.177125  -2.385526  35.692809  -0.378534  73.469902   0.339991   2.492038   5.784608 -23.761755  -3.027865  -0.762911  -4.074388 -22.107429   4.163193 -34.012791  -0.150477 -75.108454  -0.136367  -1.876078  -6.373932  26.045284 -15.510674  -0.846765  -5.733925  50.926951   0.003105  -0.000216 -28.911813  -6.035128   1.459642  -0.271777   0.000198  -0.000036 -16.924770  -0.495531   1.660546  54.039300   0.005514  -0.000542 -25.368327   5.783020   5.534222  -8.989492  -0.001504  -0.001473
 -2.366417   0.843803   4.437958  -6.009773  -4.651817   0.608169  15.643495   0.196145  -1.427073  -3.948340  -0.363128   1.763686  -4.315474   0.722725   0.096015  -2.802447  -0.937475   6.998698 -16.826017  -2.090558  36.271361  -0.369601  71.420542   0.328755   2.525535   5.512417 -23.161852  -2.713906  -1.112550  -4.351829 -20.691013   3.803160 -34.722927  -0.182947 -73.944672  -0.164542  -1.876230  -6.193650  25.368884 -15.410760  -0.795581  -5.790642  50.924210   0.002481  -0.000172 -28.950395  -6.108210   1.715736  -0.303272   0.000195  -0.000029 -17.334804  -0.466654   1.601530  54.879794   0.005318  -0.000569 -24.557357   5.877301   5.440468 -10.814147  -0.002423  -0.001772
 -2.365043   0.843809   4.439068  -5.986548  -4.610608   0.572718  15.373481   0.197717  -1.462106  -3.750996  -0.394976   1.847826  -4.488118   0.815352   0.126299  -2.499920  -0.779232   7.290293 -15.557082  -1.823076  36.801500  -0.347608  69.500636   0.307243   2.528690   5.182244 -22.596093  -2.411335  -1.414332  -4.607898 -19.365482   3.468525 -35.372500  -0.196267 -72.850992  -0.175661  -1.906667  -5.956252  24.731478 -15.303324  -0.746870  -5.851992  50.831330   0.001870  -0.000135 -28.944037  -6.175863   1.945744  -0.327989   0.000178  -0.000023 -17.730797  -0.427618   1.534438  55.612074   0.005089  -0.000617 -23.772126   5.972532   5.354228 -12.257117  -0.002983  -0.002032
 -2.363579   0.843984   4.440168  -5.945441  -4.580752   0.539360  15.115719   0.197615  -1.499793  -3.565642  -0.426601   1.923754  -4.648692   0.901698   0.154426  -2.211773  -0.648917   7.555800 -14.371624  -1.573248  37.285459  -0.319487  67.707317   0.281430   2.526530   4.847416 -22.070236  -2.126135  -1.680574  -4.837789 -18.130705   3.151426 -35.964455  -0.197532 -71.828157  -0.176238  -1.943031  -5.708517  24.139286 -15.193046  -0.695573  -5.917253  50.684326   0.001316  -0.000094 -28.909071  -6.235691   2.153825  -0.346760   0.000155  -0.000018 -18.113880  -0.386971   1.461418  56.272110   0.004799  -0.000722 -23.021151   6.059461   5.273240 -13.387226  -0.003261  -0.001987
 -2.362030   0.844259   4.441252  -5.893699  -4.563618   0.505391  14.872871   0.196733  -1.538569  -3.390315  -0.457034   1.992511  -4.796790   0.982208   0.180519  -1.940795  -0.538567   7.795097 -13.266883  -1.336739  37.726788  -0.289098  66.034333   0.254397   2.527423   4.526844 -21.582117  -1.859751  -1.918775  -5.042080 -16.982493   2.848742 -36.503628  -0.191404 -70.873540  -0.170439  -1.976756  -5.467904  23.589075 -15.082790  -0.640852  -5.984769  50.504159   0.000833  -0.000044 -28.855794  -6.286768   2.343316  -0.360313   0.000131  -0.000015 -18.482092  -0.346992   1.385173  56.875826   0.004469  -0.000869 -22.307345   6.137345   5.196658 -14.286740  -0.003352  -0.001745
 -2.360287   0.847768   4.442853  -5.729520  -4.612266   0.455348  14.341506   0.195869  -1.530913  -3.172401  -0.472603   2.085960  -4.870063   0.990299   0.210984  -1.766862  -0.550851   8.227881 -12.287365  -1.237452  38.165565  -0.265859  63.128687   0.222723   2.765612   4.929543 -20.864395  -1.492567  -2.064492  -5.355791 -15.701697   2.537021 -37.283681  -0.244716 -68.246469  -0.211243  -1.562176  -6.159736  23.081065 -15.127900  -0.467436  -6.053705  50.170255   0.000055   0.000008 -27.045302  -6.324115   3.212096  -2.718959   0.010474   0.000816 -18.196829  -0.379929   1.331214  56.014356   0.003483   0.000495 -19.411180   6.271422   4.766303 -24.211011  -0.027119   0.009338
 -2.358523   0.852896   4.444580  -5.521862  -4.523848   0.821710  13.767849   0.089071  -1.840832  -2.964364  -0.564477   2.039548  -4.963245   0.990554   0.242958  -1.521969  -0.673894   8.688286 -11.304315  -1.246657  38.598346  -0.242423  60.320225   0.194828   2.783090   4.794814 -20.191044  -1.068633  -2.144944  -5.668875 -14.431484   2.318589 -38.008223  -0.268233 -65.648615  -0.225765  -1.475771  -6.102080  22.440811 -14.890652  -0.282194  -6.492566  49.008650  -0.002234  -0.000846 -23.639557  -6.301326   3.797600  -2.452149   0.008087   0.000719 -18.213528  -0.326678   0.849447  55.333049   0.002257   0.000968 -17.165866   6.265537   4.207065 -25.960067  -0.029900   0.006344
